<?xml version="1.0" encoding="utf-8"?>
<!-- Svg Vector Icons : http://www.onlinewebfonts.com/icon -->
<!DOCTYPE svg PUBLIC "-//W3C//DTD SVG 1.1//EN" "http://www.w3.org/Graphics/SVG/1.1/DTD/svg11.dtd">
<svg version="1.1" xmlns="http://www.w3.org/2000/svg" xmlns:xlink="http://www.w3.org/1999/xlink" x="0px" y="0px" viewBox="0 0 1000 1000" enable-background="new 0 0 1000 1000" xml:space="preserve">
<metadata> Svg Vector Icons : http://www.onlinewebfonts.com/icon </metadata>
<g><path d="M473.5,458.3c2.6,2.6,3.9,6.5,3.9,9.1c-1.3,3.9-7.8,0-7.8-2.6C467,462.2,468.3,458.3,473.5,458.3C480,458.3,472.2,459.6,473.5,458.3C472.2,457,473.5,458.3,473.5,458.3C478.7,462.2,468.3,457,473.5,458.3L473.5,458.3z"/><path d="M448.7,475.2c0,7.8-9.1,10.4-15.6,11.7c-6.5,1.3-26.1,11.7-31.3,3.9c-2.6-5.2,9.1-6.5,11.7-7.8C425.3,480.4,437,476.5,448.7,475.2C448.7,480.4,433.1,476.5,448.7,475.2C448.7,483,431.8,476.5,448.7,475.2L448.7,475.2z"/><path d="M352.3,638.1c7.8-1.3,16.9,19.5,22.1,24.8C369.3,669.3,354.9,642,352.3,638.1c1.3,0,1.3,5.2,2.6,5.2C354.9,643.3,353.6,638.1,352.3,638.1C361.4,636.8,357.5,649.8,352.3,638.1z"/><path d="M608.9,690.2c-1.3-2.6-3.9-5.2-2.6-7.8c2.6-2.6,6.5-1.3,7.8,1.3c1.3,1.3,3.9,5.2,0,7.8C612.9,692.8,610.2,688.9,608.9,690.2C607.6,687.6,610.3,688.9,608.9,690.2C607.6,687.6,611.6,688.9,608.9,690.2z"/><path d="M279.4,20.6c1.3,0,1.3,0,1.3,1.3c0-1.3,1.3-1.3,2.6-1.3c0-2.6,3.9-1.3,6.5,0c1.3,0,2.6,1.3,2.6,1.3c-1.3,0,6.5,0,1.3,1.3c1.3,1.3,3.9,1.3,6.5,3.9c1.3,1.3,1.3,2.6,1.3,2.6c1.3,1.3,0,1.3,1.3,2.6c1.3,1.3,2.6,3.9,3.9,5.2c0,2.6,3.9,3.9,3.9,6.5c1.3,2.6,2.6,5.2,3.9,6.5c2.6,3.9,9.1,6.5,9.1,13c1.3-1.3,1.3,1.3,2.6,2.6c1.3,2.6,2.6,3.9,3.9,6.5c1.3,1.3,6.5,10.4,9.1,10.4c0,0,0,1.3-1.3,1.3c1.3,1.3,3.9,2.6,3.9,5.2c5.2-2.6,10.4-5.2,15.6-5.2c1.3,0,3.9,0,5.2,0c2.6,1.3,2.6-1.3,5.2,0c2.6,1.3,3.9,2.6,7.8,2.6c1.3,0,3.9,0,3.9,0s1.3,5.2,2.6,1.3c1.3,1.3,9.1,5.2,5.2,5.2c0,0,2.6,1.3,3.9,2.6c1.3,1.3,2.6,1.3,3.9,2.6c1.3,1.3,1.3,1.3,2.6,2.6c2.6,2.6,5.2,5.2,6.5,9.1c2.6,3.9,5.2,7.8,7.8,13c2.6,5.2,6.5,10.4,7.8,16.9c0,2.6,1.3,5.2,0,6.5c0,1.3,2.6,5.2-1.3,6.5c0,1.3,1.3,0,2.6,0c-1.3,1.3,0,2.6,0,3.9c0,1.3-1.3,2.6-2.6,3.9c-1.3,1.3-3.9,6.5-3.9,7.8c-3.9-1.3-6.5,11.7-10.4,10.4c0,1.3,2.6-1.3,1.3,1.3c-1.3-1.3-1.3,1.3-2.6,0c0,1.3-1.3,2.6-1.3,5.2l3.9,5.2c2.6,3.9,5.2,7.8,7.8,11.7c1.3,2.6,3.9,5.2,5.2,9.1c1.3,1.3,5.2,3.9,5.2,5.2c1.3,3.9,5.2,7.8,7.8,11.7c3.9,5.2,7.8,10.4,11.7,14.3c1.3,2.6,2.6,3.9,5.2,6.5c3.9,3.9,5.2,6.5,7.8,11.7c1.3,2.6,3.9,5.2,5.2,7.8c1.3,1.3,3.9,3.9,3.9,6.5c0,0,0,0,1.3,0s1.3,1.3,1.3,2.6c1.3,1.3,2.6,2.6,3.9,5.2c1.3,1.3,2.6,3.9,3.9,3.9c1.3,1.3,1.3,2.6,3.9,3.9c0,3.9,2.6,6.5,5.2,9.1c0,0,5.2,5.2,5.2,2.6c-1.3,0,2.6,1.3,2.6,1.3c-2.6,0,1.3,1.3,1.3,2.6c1.3,1.3,1.3,2.6,2.6,1.3c1.3,0,5.2,0,3.9,1.3c1.3,0,1.3-1.3,2.6-1.3c1.3,0,0,1.3,0,1.3h1.3c-1.3,0,3.9,2.6,3.9,0c0,0,0,1.3-1.3,1.3c0-1.3,2.6,0,2.6-1.3c1.3,0,0,1.3,1.3,1.3c1.3,0,2.6,0,3.9-1.3c1.3,0,3.9,0,6.5,0c2.6,0,2.6,0,3.9-2.6c1.3,1.3,3.9,1.3,3.9-1.3c1.3,0,3.9,0,5.2,0c0,0,0-1.3-1.3-1.3c2.6-1.3,5.2,0,7.8,0s9.1,0,11.7,0c2.6,1.3,6.5,3.9,9.1,2.6c1.3,1.3,1.3,1.3,1.3,2.6c1.3,1.3,2.6,0,3.9,1.3c1.3,2.6,3.9,2.6,6.5,3.9c2.6,1.3,5.2,5.2,7.8,6.5c2.6,2.6,3.9,5.2,6.5,6.5c1.3,1.3,6.5,2.6,6.5,5.2v-1.3c2.6,2.6,19.5,14.3,18.2,16.9c1.3-1.3,2.6,1.3,2.6,2.6c0,0,3.9,3.9,1.3,2.6c2.6,2.6,3.9,7.8,7.8,7.8c1.3,0,0,6.5,3.9,5.2c-1.3,1.3-1.3,2.6,0,2.6c2.6,1.3,2.6,1.3,2.6,2.6c0,3.9,6.5,6.5,5.2,9.1c0-1.3,9.1,6.5,9.1,7.8c5.2,6.5,9.1,14.3,13,20.8c5.2,6.5,11.7,13,15.6,20.8c2.6,3.9,3.9,6.5,5.2,10.4c1.3,3.9,5.2,6.5,7.8,9.1c3.9,6.5,6.5,13,10.4,18.2c1.3,2.6,3.9,2.6,5.2,5.2c2.6,3.9,3.9,6.5,6.5,10.4c5.2,7.8,13,14.3,16.9,22.1c1.3,2.6,3.9,5.2,6.5,7.8c0,0,6.5,5.2,2.6,3.9c6.5,10.4,14.3,19.5,22.1,30c2.6,2.6,5.2,3.9,6.5,6.5c2.6,3.9,3.9,7.8,6.5,11.7c13,22.1,28.7,43,44.3,63.8c6.5,9.1,11.7,19.5,19.5,28.7c3.9,3.9,5.2,7.8,9.1,11.7c3.9,3.9,7.8,6.5,10.4,11.7c7.8,9.1,14.3,19.5,20.8,30c1.3,2.6,3.9,5.2,5.2,7.8c0,1.3,1.3,2.6,1.3,2.6c1.3,0,2.6,0,2.6,1.3c1.3,1.3,2.6,2.6,3.9,5.2c1.3,2.6,0,5.2,3.9,3.9c0,1.3,0,5.2,2.6,5.2c-1.3,1.3,0,2.6,1.3,3.9c0,0-1.3-1.3-1.3,0s1.3,5.2-1.3,5.2c0,1.3,1.3,0,2.6,1.3c-1.3,0-1.3,1.3,0,1.3c1.3,1.3,1.3,2.6,1.3,2.6c0,1.3,0,3.9,0,5.2c-1.3,3.9-1.3,7.8-3.9,11.7c-3.9,6.5-2.6,18.2-10.4,23.4c3.9,1.3,0,2.6-2.6,3.9c0,0,0,1.3,0,2.6c-2.6-1.3,0,0,0,1.3c-1.3,0-1.3,0-1.3,1.3c0-1.3,0-1.3-1.3,0c0,1.3,0,1.3,0,1.3c-1.3,0-1.3,0-2.6,0c1.3,2.6-1.3,2.6-2.6,5.2c5.2,1.3,3.9,2.6,3.9,3.9c0,1.3-1.3,3.9-2.6,5.2c-1.3,1.3-1.3,0-1.3,1.3s0,2.6,0,3.9c-3.9-1.3-6.5,7.8-7.8,9.1c-1.3,1.3-14.3,15.6-13,16.9c-1.3-1.3-7.8,7.8-9.1,9.1c0-1.3-1.3-1.3-1.3,0c1.3,1.3,0,1.3-1.3,1.3c-2.6,1.3-3.9,2.6-5.2,5.2c-3.9,3.9-9.1,6.5-13,10.4c-2.6,2.6-3.9,3.9-5.2,6.5c0,0-3.9,5.2-5.2,3.9c-2.6,2.6-5.2,3.9-7.8,5.2c-2.6,1.3-2.6,2.6-5.2,5.2c-2.6,2.6-6.5,3.9-9.1,6.5c-5.2,2.6-9.1,7.8-13,11.7c1.3-1.3,0-1.3-1.3,0c-1.3,0-1.3,1.3-2.6,1.3c-2.6,1.3-5.2,3.9-7.8,5.2c-5.2,3.9-9.1,6.5-14.3,10.4c-1.3,1.3-3.9,2.6-5.2,3.9c-1.3,0-3.9,0-3.9,1.3c-1.3,3.9-6.5,3.9-9.1,5.2c-9.1,5.2-18.2,10.4-27.4,14.3c-5.2,2.6-10.4,5.2-15.6,7.8c-2.6,1.3-5.2,2.6-6.5,3.9c-1.3,0-3.9,0-3.9,2.6c-1.3,0-1.3,0-1.3-1.3c-3.9,1.3-6.5,3.9-10.4,5.2c-3.9,1.3-6.5,1.3-10.4,1.3c-3.9,1.3-6.5,3.9-10.4,3.9c-3.9,0-6.5,1.3-10.4,2.6c-6.5,1.3-14.3,3.9-20.8,5.2c-2.6,0-3.9-1.3-6.5,0c-1.3,2.6-3.9,1.3-6.5,1.3c0,0,1.3,0,1.3,1.3c-2.6-1.3-6.5,0-9.1-2.6c-1.3,0,0,1.3,0,2.6c-1.3,0-2.6-3.9-3.9,0c-1.3-1.3,1.3-1.3-1.3,0c-1.3,0-2.6,0-1.3-1.3c-1.3,0-1.3,0-2.6,1.3c0-1.3,0-1.3-1.3-1.3c0,1.3-1.3,2.6-2.6,0c-1.3,1.3-3.9,1.3-3.9-1.3c0,1.3-6.5,0-6.5-1.3c1.3,0,1.3,0,2.6,0c-2.6-3.9-9.1,2.6-10.4-2.6c-3.9,2.6-6.5-3.9-11.7-3.9c0-1.3,1.3-1.3,2.6-1.3c0-1.3-1.3,1.3-1.3-1.3c-1.3,0,0,1.3-2.6,1.3c1.3-2.6-3.9-1.3-2.6-3.9c-1.3,2.6,0,0-1.3,0s-1.3-2.6,0-1.3c-1.3-2.6-2.6-2.6-3.9-5.2c0-1.3,0-2.6,1.3-3.9c0-1.3-1.3-2.6-2.6-3.9c-5.2-6.5-9.1-13-13-18.2c-2.6-2.6-3.9-5.2-6.5-9.1c-1.3-2.6-3.9-3.9-5.2-6.5c-2.6-2.6-2.6-6.5-5.2-9.1c-2.6-3.9-5.2-6.5-7.8-10.4c-10.4-11.7-19.5-26.1-28.7-37.8c-10.4-13-19.5-26.1-28.7-40.4c-16.9-24.8-33.9-48.2-52.1-71.6c-5.2-6.5-9.1-13-14.3-18.2c-5.2-6.5-10.4-11.7-14.3-19.5c-6.5-10.4-15.6-19.5-22.1-30c-2.6-3.9-5.2-10.4-10.4-13c-1.3-1.3-2.6,0-3.9-1.3c-2.6-1.3-3.9-3.9-5.2-6.5c-3.9-5.2-6.5-9.1-10.4-14.3c-1.3-2.6-1.3-3.9-3.9-6.5c-2.6-3.9-6.5-7.8-7.8-11.7c-1.3,1.3,0,1.3-1.3,0c-1.3-1.3-1.3-2.6-2.6-3.9c0,0-3.9-3.9-3.9-2.6c0-1.3-1.3-5.2-3.9-3.9c0-1.3,1.3-2.6-1.3-2.6c0-1.3,1.3-1.3,1.3-1.3s-1.3,0-2.6,0c1.3-1.3-2.6-7.8-3.9-9.1c-1.3-3.9-3.9-5.2-5.2-9.1c-2.6-6.5-7.8-11.7-11.7-16.9c-2.6-2.6-5.2-3.9-7.8-7.8c-1.3-1.3-1.3-3.9-2.6-5.2c-1.3-2.6-1.3-5.2-2.6-6.5c-2.6-2.6-3.9-7.8-5.2-10.4s-6.5-6.5-3.9-10.4c0,0,0,1.3-1.3,0c0,0,0-1.3,1.3-1.3c-1.3-1.3-2.6,0-1.3-2.6c0-1.3,0-3.9-1.3-5.2c-1.3-1.3-1.3-2.6-2.6-3.9c0-1.3-1.3-1.3-1.3-2.6c0-1.3,0-2.6,0-1.3c0-1.3-3.9-10.4-1.3-10.4c-2.6-1.3-1.3-5.2-1.3-7.8c0,0,0-1.3,1.3-1.3c1.3-1.3,0-2.6-1.3-3.9c7.8-1.3,0-19.5,7.8-19.5c-1.3,0-1.3-1.3-1.3-2.6h1.3c2.6-2.6,1.3-5.2,3.9-6.5c-3.9-2.6,2.6-5.2,3.9-7.8c1.3-2.6,1.3-6.5,2.6-7.8c1.3-1.3,1.3-3.9,2.6-3.9v1.3c0,0,1.3-1.3,0-1.3c1.3,0,3.9-2.6,3.9-2.6c1.3-1.3,1.3-2.6,1.3-2.6l2.6-2.6h-1.3l1.3-3.9c1.3-1.3,2.6-2.6,3.9-2.6c-2.6-1.3,1.3-3.9,2.6-3.9c-1.3-1.3-1.3,0,1.3-2.6c0,0,1.3-1.3,2.6-1.3c0-1.3-1.3-1.3-1.3-2.6c1.3,1.3,5.2-2.6,5.2-3.9l-1.3-1.3c5.2,2.6-1.3-3.9,2.6-3.9l-1.3,1.3c1.3,0,0-1.3,1.3-1.3c0,0-1.3,0-1.3-1.3c2.6,0,1.3-1.3,1.3-3.9c0-1.3,1.3-3.9,1.3-5.2c-1.3-2.6,0-7.8,1.3-10.4c0,1.3,0,1.3-1.3,1.3c-1.3,0-2.6-5.2,0-5.2c0,0-2.6-5.2-3.9-6.5c0,2.6-2.6,0,0,0c-1.3-1.3-3.9-3.9-3.9-5.2c-1.3,0-1.3,0-1.3,0c0-1.3,0-1.3,0-2.6c0,0-1.3-2.6,0-1.3c0-1.3-1.3-1.3-1.3-2.6h1.3c0-1.3-2.6-1.3-2.6-1.3v-1.3c-1.3-1.3-1.3-3.9-2.6-5.2c-1.3-1.3-5.2-7.8-7.8-6.5c1.3-2.6-1.3-7.8-3.9-9.1c-5.2-2.6-5.2-5.2-7.8-9.1c-3.9-3.9-10.4-9.1-10.4-15.6l-1.3,1.3c-1.3-7.8-9.1-13-14.3-18.2c-2.6-2.6-3.9-6.5-6.5-9.1c-2.6-3.9-6.5-6.5-7.8-10.4c0,1.3-6.5,2.6-7.8,2.6c-2.6,0-9.1-2.6-9.1,1.3c-3.9-1.3-11.7,0-13-3.9c0,0-1.3,1.3,0,1.3c0-1.3-15.6-7.8-16.9-7.8c-1.3,0-1.3-1.3-2.6-2.6c-1.3-1.3-3.9-1.3-6.5-3.9c-2.6-2.6-6.5-2.6-6.5-5.2c0-1.3-6.5-2.6-2.6-3.9c-3.9-1.3-3.9-6.5-7.8-7.8c-1.3-1.3-2.6,0-2.6-1.3c0-1.3,1.3-1.3,0-2.6c-1.3-2.6-5.2-3.9-2.6-7.8c-2.6-1.3-1.3,1.3-1.3-1.3c0-1.3,0-1.3-1.3-2.6c-1.3-2.6-2.6-3.9-2.6-6.5c0-1.3,0-2.6,0-3.9c0-1.3,0-3.9,0-6.5c0-1.3-1.3-1.3-1.3-1.3c0-1.3,1.3-3.9,1.3-5.2c1.3-3.9,2.6-6.5,3.9-10.4c1.3-2.6,3.9-5.2,5.2-7.8c1.3-1.3,1.3-2.6,1.3-3.9h2.6c1.3-1.3-1.3-1.3,0-2.6c1.3,0,1.3-1.3,2.6-1.3c1.3-1.3,2.6-2.6,1.3-5.2c-1.3-1.3,0-2.6-1.3-3.9c-1.3-1.3-2.6-2.6-3.9-3.9c-2.6-2.6-3.9-5.2-6.5-7.8c0-1.3-6.5-6.5-5.2-7.8c-1.3-1.3-1.3,0-2.6-2.6c0,0-2.6-2.6-2.6-3.9c-2.6-3.9-5.2-6.5-7.8-10.4c-3.9-3.9-6.5-9.1-5.2-14.3c0-2.6,0-7.8,1.3-9.1c1.3,0,0,1.3,0,1.3c3.9-1.3,1.3-7.8,3.9-10.4c2.6-2.6,2.6-2.6,3.9-5.2c1.3-2.6,2.6-3.9,2.6-6.5c2.6,1.3,5.2-5.2,3.9-5.2c7.8-2.6,7.8-11.7,15.6-13c0,0,0-1.3-1.3-1.3c1.3-3.9,9.1-5.2,10.4-7.8c2.6-3.9,13-5.2,11.7-10.4c2.6,1.3,3.9-1.3,3.9-3.9c2.6,1.3,5.2-1.3,6.5-2.6c6.5-3.9,13-7.8,18.2-11.7c5.2-3.9,11.7-9.1,18.2-11.7c2.6-1.3,5.2-1.3,6.5-2.6c1.3-1.3,2.6-3.9,5.2-3.9c0,0,0-1.3-1.3-1.3c1.3-1.3,3.9-1.3,5.2-2.6c2.6-2.6,6.5-5.2,10.4-7.8c3.9,2.6,7.8-6.5,11.7-5.2c-1.3-2.6,26.1-10.4,30-9.1C276.7,21.9,279.4,21.9,279.4,20.6C279.4,21.9,279.4,21.9,279.4,20.6C279.4,21.9,279.4,21.9,279.4,20.6C279.4,20.6,279.4,23.2,279.4,20.6L279.4,20.6z M274.2,37.5c0-3.9,10.4,3.9,10.4,3.9s-1.3-1.3,0-1.3c1.3,0,1.3,2.6,1.3,2.6c0,2.6-1.3,1.3,1.3,2.6c-1.3,1.3-1.3,2.6-2.6,2.6c0,1.3,1.3,2.6,0,3.9c-1.3,1.3-2.6,2.6-3.9,3.9c0,0,1.3-1.3,1.3,0c0,1.3-2.6,0-1.3,2.6c-3.9-2.6-3.9,3.9-5.2,5.2c-2.6,1.3-3.9,1.3-6.5,2.6c-2.6,0-6.5,2.6-7.8,1.3c-2.6-2.6-5.2-7.8-3.9-11.7c0-1.3,1.3-2.6,2.6-2.6l1.3-1.3c1.3-1.3,1.3-1.3,0-1.3c2.6,0,1.3-2.6,3.9-2.6c-1.3,0,7.8-7.8,7.8-7.8c1.3-1.3-3.9-1.3-5.2-1.3c-3.9,1.3-6.5,2.6-10.4,3.9c-6.5,0-14.3,2.6-19.5,6.5c-2.6,1.3-3.9,2.6-5.2,3.9c-1.3,0-2.6,1.3-3.9,1.3c0,1.3-1.3,2.6-1.3,2.6c-5.2,2.6-9.1,5.2-14.3,9.1c0-1.3-5.2,2.6-5.2,2.6c-2.6,1.3-5.2,3.9-7.8,3.9c-1.3,0-1.3,1.3-2.6,2.6c-1.3,1.3-3.9,2.6-6.5,2.6c-5.2,2.6-7.8,5.2-11.7,9.1c0,0-7.8,3.9-6.5,3.9c2.6,1.3,5.2-1.3,9.1,0c1.3,0,2.6,2.6,3.9,2.6c1.3,0,6.5,3.9,5.2,5.2c0-1.3-1.3-1.3-2.6-1.3c1.3,1.3,1.3,2.6,2.6,3.9c-1.3,1.3-1.3,2.6,0,2.6c-2.6,0-1.3,2.6-1.3,3.9c-2.6,0-1.3,2.6-2.6,3.9c-2.6,1.3-3.9,3.9-6.5,5.2c-3.9,3.9-11.7,6.5-15.6,3.9c-2.6-1.3-2.6-5.2-2.6-7.8c0-1.3,0-2.6,0-3.9c0-1.3,0-2.6,0-2.6c-1.3-1.3-1.3-2.6,1.3-2.6c1.3-1.3,0-1.3,1.3-2.6c1.3,0,2.6-1.3,2.6-2.6c1.3-2.6,3.9-3.9,5.2-6.5c-5.2,3.9-9.1,11.7-15.6,13c0,2.6-5.2,6.5-7.8,7.8c-3.9,2.6-22.1,15.6-16.9,20.8c-2.6,0-2.6,3.9-5.2,5.2c2.6,2.6,6.5,5.2,10.4,2.6c-1.3,1.3,0,1.3,0,1.3c1.3,0,1.3-1.3,1.3-1.3c0,2.6,6.5,0,5.2,1.3c11.7-2.6,24.8-3.9,35.2-10.4c5.2-2.6,10.4-6.5,15.6-9.1c2.6-1.3,5.2-2.6,7.8-3.9c1.3,0,2.6,0,3.9-1.3c0-1.3,0-1.3,1.3-2.6c2.6-2.6,7.8-3.9,11.7-6.5c5.2-2.6,10.4-6.5,15.6-9.1c7.8-3.9,18.2-7.8,23.4-15.6c0,2.6,5.2-3.9,6.5-5.2c2.6-2.6,9.1-5.2,9.1-9.1c5.2-2.6,7.8-6.5,10.4-10.4c1.3-1.3,1.3-2.6,2.6-3.9c1.3-1.3,3.9-2.6,2.6-5.2h2.6c0,0-1.3-2.6,0-1.3c0,0-1.3-6.5,1.3-2.6c0-1.3-1.3-3.9,0-5.2c0,1.3,0,1.3,1.3,1.3c0-3.9,0-6.5,0-10.4c0-1.3-1.3-1.3-1.3-3.9c-3.9,0-7.8,1.3-11.7,0c0,1.3,0,1.3-1.3,2.6c0,0-3.9-1.3-3.9,0C275.5,34.9,271.6,37.5,274.2,37.5C274.2,36.2,274.2,36.2,274.2,37.5C272.9,37.5,274.2,37.5,274.2,37.5C274.2,32.3,271.6,37.5,274.2,37.5L274.2,37.5z M301.5,50.5c0,1.3-1.3,0-2.6,0c-1.3,1.3,0,1.3,1.3,1.3c1.3,1.3,0,3.9,0,5.2c-2.6,6.5,0,11.7,1.3,16.9c2.6,15.6,5.2,31.3,11.7,46.9c-1.3,0,3.9-2.6,3.9-3.9l1.3,1.3c1.3,0,2.6-1.3,2.6-2.6c1.3,1.3,2.6,2.6,3.9,3.9c-1.3-9.1-3.9-18.2-5.2-28.7c-1.3-3.9-3.9-14.3,0-18.2c2.6,11.7,5.2,24.8,7.8,36.5c1.3,5.2,2.6,11.7,3.9,16.9c0,2.6,0,7.8,2.6,9.1c1.3-1.3,2.6-3.9,3.9-5.2c1.3-1.3,2.6-2.6,3.9-5.2c1.3-3.9-1.3-7.8-1.3-11.7c0-3.9,0-6.5-1.3-10.4c0-1.3-1.3-3.9-1.3-5.2l-2.6-3.9c0,0,0,0,1.3,0v-1.3c0,1.3-2.6-2.6-2.6-2.6c-1.3-1.3-3.9-3.9-5.2-5.2c2.6,1.3,0-2.6,0-2.6c-1.3-1.3-2.6-3.9-3.9-5.2c-1.3-2.6-2.6-3.9-3.9-6.5c0-1.3,0-1.3-1.3-1.3s-1.3,0-1.3-1.3c1.3,0,1.3,0,1.3,0c-1.3,0-2.6-1.3-2.6-2.6c-1.3,0-1.3-1.3-1.3-1.3c-1.3-1.3-1.3-1.3,0-1.3c-1.3-1.3-2.6-3.9-3.9-3.9c-1.3-1.3-1.3-2.6-2.6-3.9C305.4,57.1,302.8,51.8,301.5,50.5L301.5,50.5C300.2,51.8,301.5,50.5,301.5,50.5L301.5,50.5z M291.1,71.4c-3.9,2.6-5.2,2.6-5.2,6.5c-1.3,5.2,0,9.1,0,14.3s1.3,10.4,1.3,14.3c0,2.6,5.2,5.2,6.5,5.2c2.6,1.3,3.9,1.3,6.5,3.9c1.3,1.3,2.6,3.9,3.9,6.5c0,1.3,2.6,11.7-2.6,10.4c0,1.3,0,1.3,1.3,1.3c-1.3,1.3-3.9,1.3-2.6,2.6c-1.3,0-2.6,1.3-2.6,1.3c1.3,0,1.3,0,1.3,1.3c-1.3,0-3.9,1.3-3.9,0c1.3,9.1,2.6,18.2,3.9,28.7c3.9-3.9,9.1-6.5,11.7-10.4c2.6,2.6,2.6-3.9,2.6-5.2c0-2.6,0-6.5,0-9.1c0-6.5-2.6-13-3.9-18.2c-2.6-6.5-3.9-13-5.2-19.5c-1.3-3.9-1.3-7.8-2.6-11.7c0-1.3-1.3-3.9-1.3-5.2c0-1.3-2.6-6.5,0-5.2c-2.6-6.5-3.9-13-3.9-19.5C292.4,64.9,293.7,70.1,291.1,71.4L291.1,71.4C289.8,71.4,289.8,71.4,291.1,71.4C288.5,74,289.8,71.4,291.1,71.4L291.1,71.4z M276.8,85.7c-11.7,0-3.9,19.5-3.9,24.8c3.9-1.3,6.5-1.3,10.4-1.3c-1.3-9.1-1.3-19.5-3.9-28.7C279.4,83.1,275.5,84.4,276.8,85.7c0,0-2.6,0-1.3-1.3C275.5,85.7,276.8,85.7,276.8,85.7C265,87,275.5,84.4,276.8,85.7L276.8,85.7z M252,104c2.6,5.2,1.3,11.7,1.3,16.9c0,7.8,2.6,15.6,3.9,23.4c1.3,7.8,2.6,14.3,2.6,22.1s-1.3,15.6,2.6,23.4c2.6-1.3,3.9-2.6,5.2-3.9c2.6-1.3,5.2,0,5.2-3.9c0-5.2,0-11.7,0-16.9c0-5.2,0-10.4-1.3-14.3c0-2.6,1.3-10.4-1.3-11.7c-7.8-5.2-7.8-11.7-5.2-19.5c1.3-3.9,3.9-6.5,3.9-10.4c0-5.2,0-11.7-1.3-15.6C262.4,97.4,257.2,98.7,252,104c0,0,1.3,1.3,1.3,0C254.6,102.6,253.3,102.6,252,104C254.6,109.2,254.6,100,252,104L252,104z M255.9,156.1c-2.6-16.9-7.8-33.9-6.5-50.8c-1.3,1.3-3.9,1.3-5.2,2.6c-2.6,1.3-5.2,1.3-3.9,5.2c1.3,3.9,1.3,9.1,1.3,14.3c1.3,9.1-1.3,18.2,2.6,27.4C244.2,150.8,254.6,156.1,255.9,156.1c0-1.3,0-7.8-1.3-9.1C255.9,148.2,253.3,154.8,255.9,156.1C254.6,139.1,254.6,154.8,255.9,156.1L255.9,156.1z M356.2,94.8c-1.3-2.6-6.5,1.3-7.8,2.6c2.6,2.6,5.2,6.5,6.5,10.4c3.9,1.3,5.2,3.9,5.2,6.5c1.3,2.6-1.3,3.9-2.6,6.5c-1.3,2.6-2.6,6.5-3.9,9.1h1.3c0,1.3-5.2,3.9-5.2,5.2c-2.6,2.6-3.9,5.2-5.2,7.8c-5.2,5.2-10.4,11.7-15.6,16.9c-2.6,1.3-3.9,3.9-6.5,5.2c-2.6,1.3-5.2,5.2-7.8,6.5c-2.6,1.3-3.9,3.9-5.2,5.2c-2.6,2.6-5.2,3.9-9.1,5.2c-6.5,2.6-10.4,7.8-16.9,10.4c-3.9,1.3-7.8,3.9-10.4,5.2c-2.6,1.3-7.8,6.5-11.7,6.5c-2.6,0-5.2,2.6-9.1,3.9c-2.6,1.3-5.2,2.6-7.8,3.9c-3.9,1.3-10.4,7.8-14.3,3.9c0,1.3,0,2.6-1.3,2.6c0-2.6-6.5,0-7.8,1.3c-2.6,1.3-10.4,0-11.7,3.9c-1.3-1.3-2.6,0-2.6-1.3c-1.3,2.6-3.9,2.6-6.5,2.6c-1.3,0-6.5,1.3-5.2,1.3c-2.6,0-3.9,0-5.2,0c-1.3,0-1.3,1.3-2.6,2.6c-2.6,1.3-6.5,2.6-10.4,2.6c2.6,1.3,0,0-1.3-1.3c-1.3,0-2.6-1.3-3.9-1.3c2.6,0-1.3-1.3-1.3-1.3c-1.3-1.3-2.6-3.9-1.3-5.2c-1.3-1.3-1.3,1.3-2.6,0c1.3,0-2.6-3.9-2.6-3.9c-1.3,1.3-1.3,0-1.3-1.3c0-1.3-1.3,0-2.6,0c-1.3-7.8-19.5,7.8-15.6,10.4c-2.6,0-3.9,2.6-2.6,3.9c-1.3-2.6-1.3,1.3-1.3,2.6c0,2.6-1.3,0-1.3,2.6c-1.3,2.6,1.3,5.2,1.3,6.5c0,2.6-1.3,1.3-1.3,3.9c0,2.6,0,3.9,1.3,6.5c0,2.6,0,3.9,1.3,5.2c1.3,2.6,0,2.6,1.3,3.9c1.3,1.3,1.3,2.6,2.6,3.9c2.6,1.3,3.9,3.9,5.2,5.2c1.3,1.3,3.9,3.9,5.2,5.2c0,0,3.9,3.9,3.9,2.6c-1.3,1.3-1.3-1.3,0-1.3c1.3,7.8,15.6,6.5,20.8,10.4l-1.3-1.3c0,0,9.1,3.9,5.2,1.3c1.3,1.3,3.9,0,3.9,0c1.3,3.9,6.5-1.3,9.1,0c0-2.6,3.9-1.3,6.5-1.3c2.6-1.3,2.6-1.3,3.9,0c1.3,0,2.6,0,1.3-1.3c1.3-1.3,2.6,0,3.9,0h-1.3c1.3-2.6,3.9,0,5.2,0c1.3-1.3-1.3-2.6,1.3-2.6c2.6,1.3,3.9-1.3,6.5-2.6c2.6,0,3.9,0,6.5-1.3c2.6-1.3,3.9-3.9,6.5-5.2c2.6-1.3,3.9-1.3,6.5-1.3c2.6-1.3,5.2-2.6,7.8-3.9c1.3-1.3,2.6-1.3,3.9-2.6c2.6-1.3,1.3,0,2.6,0c1.3,0,1.3-1.3,1.3-1.3c1.3-1.3,1.3,0,1.3,0c2.6-3.9,7.8-5.2,11.7-6.5c3.9-1.3,7.8-3.9,11.7-6.5c2.6-1.3,5.2-2.6,6.5-3.9c2.6-1.3,5.2-2.6,6.5-3.9c1.3-1.3,7.8-1.3,6.5-3.9c0,1.3,22.1-13,23.4-13c2.6-1.3,5.2-3.9,7.8-6.5c2.6-1.3,5.2-2.6,6.5-3.9c2.6-2.6,6.5-3.9,9.1-5.2c5.2-2.6,10.4-6.5,14.3-9.1c6.5-3.9,10.4-10.4,15.6-15.6c1.3-1.3,16.9-23.4,19.5-22.1c0-1.3,0-3.9,3.9-3.9c0-1.3,0-2.6-1.3-1.3c1.3-1.3,3.9-7.8,3.9-7.8c1.3-1.3,2.6-2.6,2.6-3.9c0-5.2-2.6-10.4-5.2-15.6c-2.6-6.5-6.5-11.7-10.4-16.9c-2.6-2.6-5.2-7.8-10.4-9.1c2.6,0-2.6-2.6-2.6-3.9c-1.3,1.3-1.3,0-2.6,0c1.3,0,1.3-2.6,0-2.6c0,0,0,1.3-1.3,1.3c-1.3-3.9-10.4-5.2-14.3-6.5c-2.6-1.3-6.5-1.3-9.1-1.3C356.2,92.2,356.2,96.1,356.2,94.8C356.2,93.5,356.2,94.8,356.2,94.8C354.9,92.2,356.2,94.8,356.2,94.8L356.2,94.8z M240.3,152.2c-1.3-6.5,1.3-13-1.3-19.5c-2.6-6.5-2.6-13-2.6-19.5c-2.6,2.6-6.5,3.9-9.1,6.5c-2.6,2.6-1.3,5.2-1.3,7.8c1.3,9.1,2.6,18.2,2.6,27.4C232.5,153.5,236.4,150.8,240.3,152.2c0,0,0-2.6-1.3-2.6C239,149.5,239,152.1,240.3,152.2C239,146.9,237.7,152.1,240.3,152.2L240.3,152.2z M212.9,128.7c-1.3,0-1.3,0-2.6,0c2.6,10.4,1.3,19.5,2.6,30c0,1.3,3.9,15.6-1.3,15.6c1.3,1.3,0,3.9,0,5.2c0,2.6,0,5.2,0,9.1c1.3,3.9,1.3,9.1,1.3,13c0,2.6,0,5.2,0,7.8c1.3,0,2.6-1.3,3.9,0c-1.3-2.6,2.6-1.3,3.9-1.3c0-1.3,1.3,0,1.3,0c0-2.6,5.2-1.3,5.2-5.2c0-5.2,0-10.4,0-15.6s-1.3-11.7-2.6-16.9c2.6-2.6,2.6-6.5,1.3-10.4c0-7.8-1.3-15.6-1.3-24.8c0-3.9,0-9.1-2.6-13c-1.3-2.6-5.2,1.3-7.8,1.3c-1.3,0-1.3,1.3-2.6,2.6C211.6,127.4,211.6,127.4,212.9,128.7L212.9,128.7C211.6,128.7,211.6,128.7,212.9,128.7C211.6,128.7,211.6,128.7,212.9,128.7L212.9,128.7z M268.9,133.9c2.6,1.3,3.9,3.9,6.5,3.9c-5.2-3.9-3.9-11.7-2.6-16.9c-1.3,0,1.3-5.2,2.6-5.2c-6.5,1.3-7.8,7.8-7.8,13C267.6,127.4,267.6,133.9,268.9,133.9c1.3,0,1.3-2.6,0-2.6C267.6,131.3,267.6,132.6,268.9,133.9C271.5,133.9,267.6,127.4,268.9,133.9L268.9,133.9z M344.5,122.2c5.2-2.6,5.2-6.5,2.6-10.4c-1.3-1.3-3.9-7.8-6.5-7.8C340.6,110.5,341.9,117,344.5,122.2c1.3,0,0-2.6,0-2.6C343.2,120.9,344.5,122.2,344.5,122.2C347.1,120.9,341.9,118.3,344.5,122.2L344.5,122.2z M202.5,132.6c-6.5-1.3-5.2,3.9-3.9,7.8c1.3,7.8,1.3,15.6,1.3,23.4c2.6-1.3,6.5,0,9.1,0c0-7.8,1.3-16.9,0-26.1C207.7,136.5,205.1,126.1,202.5,132.6L202.5,132.6C202.5,131.3,203.8,131.3,202.5,132.6C194.7,130,203.8,131.3,202.5,132.6L202.5,132.6z M190.8,216c0-1.3,1.3,0,1.3,0c1.3,0,1.3-2.6,3.9-2.6c0-3.9,0-7.8-1.3-13c0-3.9-3.9-14.3,1.3-18.2c-5.2-1.3-10.4-3.9-11.7-7.8c-1.3-2.6,0-5.2,1.3-6.5c1.3-1.3,1.3-2.6,2.6-3.9c1.3,0,1.3,1.3,2.6,1.3c6.5,0,2.6-27.4,2.6-30c-3.9,3.9-13,3.9-11.7,10.4c0,9.1,0,18.2,0,27.4c0,10.4-1.3,19.5-1.3,30c0,2.6-1.3,10.4,1.3,11.7c1.3,1.3,3.9-1.3,5.2,1.3C184.3,216,192.1,216,190.8,216C190.8,214.7,190.8,216,190.8,216C192.1,213.4,190.8,216,190.8,216L190.8,216z M123,160c0,2.6,3.9,0,2.6,2.6c0,0,1.3,0,1.3-1.3c0,1.3,2.6,6.5,3.9,6.5c0-5.2,1.3-9.1,0-14.3c0,2.6-5.2,0-3.9-1.3c-2.6,0-3.9-2.6-7.8-1.3c0,1.3,2.6,2.6,2.6,3.9C123,157.4,124.3,160,123,160C124.3,160,124.3,160,123,160C124.3,162.6,124.3,160,123,160L123,160z M167.3,209.5c2.6,0,5.2,2.6,7.8,3.9c1.3-23.4,2.6-46.9,2.6-69c-2.6,2.6-10.4,2.6-11.7,6.5c-1.3,2.6,0,6.5,0,10.4c0,3.9,0,7.8,0,11.7c0,7.8-1.3,15.6-1.3,23.4c0,2.6-1.3,5.2,0,7.8C164.7,205.6,168.6,206.9,167.3,209.5c0,0-1.3-1.3,1.3-1.3C167.3,209.5,167.3,209.5,167.3,209.5C168.6,209.5,168.6,209.5,167.3,209.5C171.2,209.5,168.6,208.2,167.3,209.5L167.3,209.5z M149.1,191.2c2.6,2.6,7.8,5.2,7.8,9.1c1.3-1.3,2.6-1.3,2.6,0c1.3-3.9,1.3-9.1,1.3-13c0-5.2,0-9.1,0-14.3c0-5.2,0-11.7,0-16.9c0-1.3,1.3-5.2,0-5.2c-1.3,0-2.6,0-3.9,1.3c-1.3,0-5.2,0-5.2,2.6c0,2.6,0,6.5,0,9.1S147.8,192.5,149.1,191.2c1.3,0,1.3-5.2,0-5.2C149.1,187.3,149.1,191.2,149.1,191.2C151.7,195.1,147.8,178.2,149.1,191.2L149.1,191.2z M145.2,153.5c-1.3,2.6-7.8,3.9-9.1,1.3c-1.3,3.9,0,9.1,1.3,13c0,3.9,0,7.8,3.9,9.1c-2.6,0,3.9,6.5,5.2,7.8c0-6.5,2.6-11.7,2.6-18.2c0-2.6,0-6.5,0-10.4c0-1.3,0-2.6-1.3-2.6C146.5,153.5,143.9,152.2,145.2,153.5C145.2,154.8,145.2,153.5,145.2,153.5C143.9,154.8,145.2,153.5,145.2,153.5L145.2,153.5z M321.1,146.9c9.1-6.5,2.6-11.7,2.6-19.5c-2.6,2.6-5.2,6.5-10.4,3.9c0,6.5,1.3,13,3.9,19.5C318.4,150.8,319.8,149.5,321.1,146.9C321.1,146.9,321.1,148.2,321.1,146.9C322.4,146.9,321.1,146.9,321.1,146.9C331.5,140.4,321.1,146.9,321.1,146.9L321.1,146.9z M274.2,143c1.3,13,1.3,26.1,2.6,39.1c5.2-1.3,15.6-7.8,15.6-13c1.3-9.1,0-19.5-1.3-27.4C285.9,143,279.4,144.3,274.2,143C275.5,157.4,279.4,144.3,274.2,143C275.5,156.1,279.4,144.3,274.2,143L274.2,143z M237.7,157.4c0-3.9-6.5,1.3-7.8,2.6c-1.3,2.6,0,5.2,1.3,7.8c1.3,1.3,1.3,2.6,2.6,3.9c1.3,0,1.3-1.3,1.3-2.6h-1.3c0,0-2.6-5.2,1.3-1.3c0-1.3,0-2.6-1.3-3.9h1.3c0,0-1.3-1.3-1.3,0c1.3-1.3,1.3-2.6,0-2.6c2.6,1.3,1.3,0,1.3-1.3s0-1.3,1.3-1.3C237.7,156.1,237.7,156.1,237.7,157.4c0-1.3,0-1.3,0-2.6C237.7,156.1,237.7,157.4,237.7,157.4C237.7,154.8,237.7,157.4,237.7,157.4L237.7,157.4z M194.7,167.8c-14.3,1.3-1.3,14.3,3.9,9.1C193.4,176.9,194.7,170.4,194.7,167.8C192.1,167.8,194.7,171.7,194.7,167.8C181.7,169.1,194.7,171.7,194.7,167.8z M237.7,201.7L237.7,201.7c-1.3,0,1.3,0,1.3,0c-2.6,0,0-1.3,1.3-1.3c0,1.3,1.3,1.3,1.3,1.3c1.3-1.3,0-2.6,0-3.9c0-2.6,0-6.5,0-9.1c0-1.3-2.6-9.1-5.2-6.5c0-2.6-5.2-5.2-6.5-3.9c1.3,7.8,1.3,15.6,1.3,22.1c0,1.3-1.3,5.2,1.3,5.2C233.8,203,236.4,201.7,237.7,201.7L237.7,201.7C237.7,203,237.7,203,237.7,201.7C235.1,201.7,237.7,203,237.7,201.7L237.7,201.7z M197.3,183.4c0,1.3,1.3,1.3,1.3,2.6c0,2.6,0,3.9,0,6.5c0,2.6,0,5.2,0,7.8c0,1.3,1.3,13,1.3,13c-1.3,0,0-1.3,0-1.3h1.3c1.3,0,1.3,1.3-1.3,1.3c14.3,1.3,6.5-26.1,5.2-32.6C206.4,180.8,196,183.4,197.3,183.4c0,0,1.3,0,1.3-1.3C198.6,182.1,196,183.4,197.3,183.4C197.3,184.7,201.2,180.8,197.3,183.4L197.3,183.4z M252,180.8c-2.6,0-6.5,0-7.8,2.6c-1.3,5.2,1.3,10.4,1.3,14.3c3.9-1.3,11.7-3.9,11.7-7.8c0-5.2,1.3-11.7-1.3-15.6c0,1.3,0,2.6-1.3,3.9c0,0-2.6,3.9-2.6,1.3C250.7,179.5,253.3,179.5,252,180.8C248.1,179.5,253.3,178.2,252,180.8L252,180.8z M399.2,199c-1.3-1.3-1.3-3.9-2.6-5.2c-1.3-1.3-2.6,0-2.6-1.3c0-3.9-1.3,1.3-3.9,1.3c2.6,1.3,2.6,5.2,3.9,7.8c0,1.3,1.3,5.2,2.6,3.9c0,2.6,0,5.2,1.3,6.5c0,2.6-2.6,3.9,0,6.5c3.9,5.2,7.8,10.4,11.7,16.9c6.5,10.4,13,20.8,20.8,30c2.6,3.9,5.2,7.8,7.8,11.7c1.3,1.3,1.3,2.6,1.3,5.2c0,1.3,2.6,1.3,2.6,2.6c1.3,1.3,6.5,7.8,5.2,10.4c-1.3,3.9-10.4-6.5-10.4-7.8c-15.6-18.2-28.7-39.1-44.3-57.3c-2.6-2.6-5.2-5.2-7.8-1.3c-2.6,2.6-5.2,5.2-7.8,7.8c-2.6,1.3-11.7,11.7-14.3,10.4c0,0,0,1.3,1.3,1.3c-2.6,1.3-5.2,2.6-7.8,3.9c-2.6,1.3-2.6,2.6-5.2,3.9c-2.6,1.3-6.5,1.3-7.8,3.9c-1.3,2.6-3.9,3.9-6.5,6.5l-1.3-1.3c-1.3,3.9-9.1,11.7-14.3,10.4c0,1.3,0,1.3,1.3,1.3c-3.9,1.3-5.2,3.9-7.8,5.2c-2.6,1.3-3.9,1.3-5.2,3.9c-2.6,0-6.5,1.3-9.1,2.6c-5.2,1.3-10.4,3.9-16.9,5.2c-1.3,0-7.8,3.9-7.8,3.9c-2.6-1.3-6.5,3.9-9.1,3.9c-2.6,0-1.3-2.6-3.9-1.3c-2.6,0-5.2-1.3-7.8-2.6c11.7,7.8,19.5,20.8,27.4,31.3c9.1,13,19.5,26.1,28.7,39.1c3.9,6.5,7.8,13,10.4,19.5c2.6,6.5,7.8,13,9.1,19.5c3.9,14.3-3.9,27.4-10.4,40.4c-6.5,13-16.9,22.1-22.1,35.2c-5.2,11.7-6.5,24.8-6.5,37.8c0,15.6,3.9,27.4,13,40.4c7.8,13,16.9,24.8,26.1,37.8c2.6,2.6,3.9,5.2,6.5,7.8c2.6,2.6,3.9,6.5,5.2,10.4c-3.9,1.3-6.5-3.9-7.8-6.5c-2.6-5.2-6.5-10.4-10.4-14.3c-10.4-11.7-16.9-24.8-26.1-37.8c-7.8-13-13-27.4-15.6-41.7c-2.6-14.3,1.3-28.7,10.4-41.7c7.8-11.7,18.2-22.1,22.1-36.5c5.2-13,5.2-27.4,1.3-40.4c-5.2-14.3-14.3-26.1-23.4-39.1c-9.1-13-16.9-26.1-27.4-37.8c-6.5-7.8-15.6-15.6-22.1-23.4c-1.3-1.3-2.6-6.5-5.2-6.5c-3.9,0-6.5,5.2-11.7,3.9c-1.3,5.2,2.6,10.4,6.5,13c-1.3,0,2.6,2.6,2.6,3.9c1.3,1.3,0,1.3,2.6,2.6c1.3,0,2.6,1.3,3.9,2.6c-1.3,0-1.3,0-1.3,1.3c3.9-1.3,10.4,9.1,11.7,11.7c-1.3,0-1.3,0-1.3,1.3c1.3,0,1.3,0,2.6,1.3c2.6,1.3,2.6,5.2,3.9,6.5c1.3,1.3,5.2,9.1,6.5,7.8c-1.3,1.3,3.9,6.5,5.2,6.5c2.6,2.6,3.9,7.8,7.8,10.4c1.3,1.3,1.3,2.6,2.6,2.6c1.3,1.3,1.3,1.3,1.3,2.6c1.3,1.3,2.6,2.6,2.6,3.9c1.3,1.3,0,1.3,0,2.6c1.3,0,0-1.3,1.3-1.3c-1.3,2.6,1.3,3.9,2.6,5.2c0,0,1.3,1.3,0,1.3c0,0,1.3,0,2.6,1.3c1.3,1.3,2.6,3.9,3.9,6.5c1.3,2.6,1.3,1.3,2.6,2.6c-3.9,0,2.6,3.9,2.6,5.2c-1.3,0-1.3,0,0,1.3c2.6,0,0,1.3,0,1.3c2.6,0,2.6,6.5,1.3,7.8v-1.3c0,2.6,1.3,3.9,2.6,5.2c1.3,1.3,0,2.6,0,5.2c0,1.3,0,7.8-3.9,7.8c1.3,1.3,1.3,0,2.6,0c-1.3,1.3-5.2,2.6-1.3,3.9c-1.3,0-2.6,1.3-1.3,2.6c-2.6,0-1.3,5.2-5.2,3.9c1.3,1.3,0,2.6,1.3,2.6c-2.6,1.3-1.3,1.3-2.6,2.6l-1.3-1.3c0,1.3,0,2.6-1.3,2.6h-1.3c1.3,0-1.3,2.6-2.6,3.9c-1.3,1.3,1.3,2.6-1.3,3.9c-1.3,1.3-2.6,1.3-2.6,2.6c-1.3,2.6-5.2,10.4-7.8,11.7c0,0-3.9,6.5-5.2,6.5c-2.6,2.6-3.9,6.5-6.5,10.4c0,1.3-1.3,3.9-1.3,3.9c-1.3,0-1.3,1.3-1.3,2.6c-1.3,1.3-2.6,5.2-1.3,7.8c-6.5-1.3-5.2,19.5-5.2,22.1c0,1.3,0,1.3,1.3,2.6c1.3,1.3,1.3,2.6,1.3,3.9c0,1.3,1.3,3.9,1.3,5.2c2.6,3.9,2.6,9.1,3.9,14.3c0,2.6,5.2,5.2,2.6,7.8c3.9,1.3,5.2,9.1,6.5,11.7c2.6,6.5,6.5,10.4,10.4,15.6c5.2,6.5,10.4,13,14.3,20.8c2.6,3.9,5.2,6.5,6.5,10.4c1.3,1.3,1.3,2.6,3.9,3.9c1.3,0,2.6,2.6,2.6,3.9c0,0,0-1.3,1.3,0c-1.3,5.2,3.9,9.1,6.5,13c5.2,6.5,9.1,13,13,19.5c10.4,13,20.8,26.1,31.3,39.1c20.8,26.1,40.4,53.4,61.2,79.5c10.4,13,18.2,27.4,28.7,40.4c3.9,6.5,9.1,13,14.3,19.5c2.6,2.6,3.9,6.5,6.5,9.1c1.3,1.3,1.3,2.6,2.6,5.2c1.3,1.3,2.6,2.6,3.9,3.9c3.9,3.9,6.5,10.4,9.1,14.3c5.2,6.5,10.4,11.7,15.6,18.2c9.1,13,19.5,26.1,30,39.1c5.2,7.8,11.7,14.3,16.9,22.1c2.6,3.9,5.2,5.2,6.5,9.1c2.6,5.2,5.2,9.1,9.1,13c1.3-1.3,5.2,1.3,1.3,1.3c1.3,1.3,3.9,6.5,6.5,6.5c0-1.3,0-1.3-1.3-1.3c1.3,0,2.6,1.3,3.9,1.3c0,0-1.3,0-1.3,1.3c0,1.3,2.6,0,1.3,1.3c2.6,0,1.3-1.3,2.6,0c1.3,0,6.5,0,5.2,2.6c1.3,0,2.6-1.3,2.6-1.3c1.3,2.6,5.2,2.6,9.1,2.6c2.6,0,6.5,2.6,7.8,0c-1.3,2.6,10.4,1.3,11.7,0c2.6,0,5.2-1.3,7.8-1.3c1.3,0,2.6,0,3.9-1.3c2.6,0,2.6,0,1.3,0c1.3,0,1.3,0,2.6-1.3c1.3-1.3,3.9,0,5.2-1.3c2.6,0,6.5-1.3,9.1-2.6c6.5-2.6,13-3.9,19.5-6.5c14.3-5.2,27.4-11.7,40.4-18.2c24.8-13,48.2-27.4,70.3-44.3c3.9-2.6,7.8-5.2,11.7-7.8c5.2-3.9,9.1-7.8,13-11.7c3.9-3.9,9.1-6.5,13-9.1c5.2-3.9,9.1-9.1,14.3-13c6.5-5.2,13-11.7,18.2-18.2c1.3-1.3,9.1-14.3,11.7-13c-5.2-3.9,7.8-6.5,3.9-10.4c2.6,0,2.6-1.3,2.6-2.6c-1.3,0,0,1.3-1.3,1.3c1.3-2.6,3.9-5.2,6.5-7.8c1.3-1.3,1.3-2.6,2.6-3.9c1.3-2.6,0,0,0-2.6c0-2.6,6.5-7.8,5.2-10.4c0,0,0,0,0,1.3c1.3-1.3-1.3-3.9,2.6-3.9c0-1.3,0-1.3-1.3-1.3c1.3,0,9.1-14.3,10.4-15.6c1.3-2.6,2.6-6.5,3.9-9.1c0-1.3-1.3-3.9-1.3-6.5c0-1.3,1.3-2.6,0-3.9c-2.6,1.3-1.3-1.3-1.3-2.6s-1.3-2.6-1.3-3.9c-1.3-2.6,0-6.5-2.6-7.8c1.3,0,1.3,0,2.6-1.3c-2.6,0-5.2-3.9-5.2-5.2c0,0-1.3,0-1.3,1.3c1.3-2.6-2.6-3.9-1.3-5.2c-1.3,0-1.3,0-1.3,1.3c-2.6-1.3-1.3-3.9-1.3-6.5c-1.3,0-1.3,0-1.3,1.3c0-1.3,0-1.3-1.3-2.6c1.3,0,1.3,0,1.3-1.3c-3.9-1.3-2.6-5.2-3.9-6.5c0-1.3-2.6-2.6-2.6-5.2c-1.3-1.3-1.3-3.9-2.6-5.2c-3.9-3.9-6.5-7.8-10.4-11.7c-2.6-2.6-7.8-6.5-9.1-10.4c-1.3-2.6-3.9-3.9-5.2-5.2c-3.9-3.9-6.5-7.8-9.1-11.7c-2.6-3.9-6.5-6.5-7.8-10.4c-2.6-3.9-5.2-9.1-7.8-13c-2.6-3.9-3.9-7.8-6.5-11.7c-2.6-3.9-6.5-7.8-10.4-13c-3.9-3.9-7.8-9.1-10.4-14.3c0-1.3-1.3-1.3-1.3-2.6s-1.3-2.6-2.6-3.9c-3.9-3.9-6.5-7.8-9.1-13c-2.6-3.9-5.2-11.7-10.4-13h1.3c0,0-2.6-2.6-1.3-3.9c-2.6,0-6.5-6.5-7.8-7.8c-3.9-3.9-6.5-9.1-10.4-13c-2.6-2.6-5.2-5.2-7.8-9.1c-1.3-1.3-1.3-2.6-2.6-3.9c-1.3-1.3-2.6-2.6-3.9-3.9c-2.6-2.6-2.6-6.5-5.2-10.4c-2.6-3.9-5.2-6.5-7.8-10.4c-5.2-6.5-10.4-11.7-15.6-18.2c-2.6-2.6-3.9-3.9-5.2-6.5c-1.3-1.3-2.6-5.2-3.9-5.2c-2.6-1.3-3.9-7.8-5.2-9.1c-2.6-3.9-5.2-6.5-7.8-10.4c-5.2-7.8-10.4-14.3-15.6-22.1c-1.3,2.6-2.6-2.6-2.6-3.9c-1.3-2.6-2.6-5.2-5.2-7.8c-1.3-2.6-2.6-3.9-3.9-6.5c-1.3-2.6-3.9-3.9-5.2-6.5c-1.3-1.3-1.3-3.9-2.6-3.9c-1.3-1.3-2.6-2.6-3.9-3.9c-1.3-1.3-6.5-5.2-6.5-6.5c0,1.3,0,1.3-1.3,1.3c0-1.3,1.3-5.2-1.3-3.9c0-3.9,0-1.3-1.3-2.6c-1.3-1.3-1.3-1.3-1.3-2.6c-1.3-1.3-2.6-5.2-3.9-3.9c2.6-2.6-2.6-3.9-2.6-5.2c2.6,0,0-2.6-1.3-3.9c-1.3-1.3-1.3-2.6-1.3-3.9c-1.3-1.3-2.6-2.6,0-2.6c-6.5-2.6-9.1-10.4-14.3-14.3c1.3,0,1.3,0,1.3-1.3c-1.3,1.3-5.2-5.2-5.2-6.5c-1.3-1.3-5.2-5.2-7.8-3.9c1.3,0,1.3,0,1.3-1.3c-3.9,0-5.2-2.6-6.5-5.2c-1.3-2.6-6.5-5.2-9.1-6.5c2.6,0-2.6-3.9-2.6-3.9c-2.6-1.3-5.2-3.9-9.1-3.9c-1.3,0-3.9-1.3-5.2,0c0-1.3-1.3-2.6-1.3-2.6c-9.1,0-13-1.3-14.3-1.3c-2.6,0-3.9-1.3-6.5,0c-2.6,1.3-6.5,1.3-9.1,1.3c-1.3,0-10.4,5.2-11.7,2.6c0,1.3,0,1.3-1.3,2.6v-1.3c-1.3,1.3-2.6,2.6-5.2,2.6c2.6,0,0,1.3-1.3,1.3c-1.3,0-3.9,0-5.2,0c-2.6,0-1.3,0-2.6,1.3l-3.9-1.3c-1.3,0-2.6,0-3.9,0c0-1.3-1.3-1.3-1.3-1.3c-2.6-1.3-5.2-2.6-6.5-6.5c-3.9,2.6-5.2-2.6-5.2-5.2c-1.3,0,0,1.3-1.3,2.6c-5.2-15.6-22.1-24.8-30-39.1c-1.3-1.3-2.6-3.9-3.9-5.2c-1.3-1.3-2.6-1.3-2.6-2.6c0-2.6-2.6-5.2-3.9-6.5c-1.3-2.6-3.9-3.9-6.5-6.5c-2.6-3.9-2.6-6.5-7.8-9.1c3.9,1.3,0-2.6-1.3-3.9c-1.3-1.3-2.6-2.6-5.2-5.2c-3.9-3.9-6.5-7.8-9.1-11.7c-2.6-3.9-5.2-6.5-7.8-10.4c-1.3-1.3-2.6-3.9-3.9-6.5c-1.3-1.3-2.6-1.3-2.6-1.3c1.3-1.3,0-2.6-1.3-2.6c1.3,0,0-2.6,0-2.6C400.5,200.4,400.5,200.4,399.2,199C400.5,200.4,400.5,197.8,399.2,199L399.2,199L399.2,199C397.9,197.8,400.5,197.8,399.2,199L399.2,199z M374.5,212.1c0,3.9,1.3,9.1,2.6,13c1.3,0,9.1-7.8,5.2-7.8c5.2-2.6,0-9.1-1.3-11.7c-2.6,1.3-7.8,6.5-6.5,9.1C375.8,214.7,377.1,209.5,374.5,212.1C374.5,216,377.1,209.5,374.5,212.1L374.5,212.1z M371.9,230.3c3.9-5.2,0-11.7-1.3-15.6c-3.9,3.9-7.8,6.5-11.7,7.8c5.2-1.3,5.2,10.4,6.5,11.7C365.3,234.2,371.9,229,371.9,230.3l1.3-2.6L371.9,230.3C375.8,225.1,371.9,227.7,371.9,230.3L371.9,230.3z M349.7,229c1.3,5.2,1.3,10.4,2.6,15.6c2.6-1.3,7.8-5.2,7.8-7.8v-1.3c1.3-1.3,0-1.3,0-2.6c0-2.6,0-5.2-1.3-6.5C357.5,221.2,352.3,227.7,349.7,229c-1.3,0,1.3,1.3,1.3,1.3C352.3,229,351,227.7,349.7,229C351,234.2,353.6,227.7,349.7,229L349.7,229z M348.4,248.6c0-5.2,1.3-11.7-1.3-16.9c0-2.6-6.5,2.6-6.5,3.9c-2.6,3.9,0,11.7,1.3,15.6C343.2,249.9,344.5,248.6,348.4,248.6c1.3,0-1.3-1.3,0-2.6C347.1,245.9,347.1,248.6,348.4,248.6C347.1,245.9,347.1,248.6,348.4,248.6L348.4,248.6z M323.7,243.3c2.6,5.2,0,11.7,2.6,18.2c1.3-2.6,5.2-3.9,7.8-6.5c1.3-1.3,1.3-2.6,2.6-2.6c1.3-1.3,1.3-3.9,1.3-5.2c0-2.6,1.3-10.4-2.6-9.1C331.5,239.4,327.6,242,323.7,243.3C326.3,248.6,328.9,242,323.7,243.3C326.3,248.6,328.9,242,323.7,243.3L323.7,243.3z M311.9,251.2c-2.6,6.5,0,13-1.3,18.2c1.3,0,3.9-1.3,5.2-2.6c2.6-1.3,6.5-1.3,6.5-3.9c1.3-6.5-1.3-13,1.3-18.2c-2.6,1.3-3.9,2.6-6.5,3.9c-1.3,1.3-6.5,1.3-5.2,3.9C310.6,255.1,315.8,251.2,311.9,251.2C308,257.7,317.1,251.2,311.9,251.2L311.9,251.2z M296.3,278.5c1.3,0,3.9-1.3,3.9-2.6l1.3-1.3c1.3-1.3,0-1.3,2.6,0c0,0,0-3.9,2.6-1.3c1.3-5.2,1.3-13-1.3-18.2c-1.3,5.2-7.8,2.6-10.4,6.5c-3.9,5.2-1.3,11.7-1.3,16.9C295,279.8,295,278.5,296.3,278.5C295,278.5,296.3,279.8,296.3,278.5C297.6,279.8,296.3,279.8,296.3,278.5L296.3,278.5z M274.2,285c1.3-1.3,5.2-1.3,2.6-3.9c-1.3-1.3,1.3-3.9-1.3-6.5c1.3,0,1.3,0,2.6-1.3c1.3,3.9,1.3,11.7,9.1,7.8c5.2-2.6,2.6-11.7,2.6-15.6c-9.1,2.6-18.2,6.5-24.8,13c0,0,0-1.3-1.3-1.3c1.3,2.6-1.3,5.2,0,7.8c1.3,1.3,5.2-1.3,6.5-1.3c0,1.3,1.3,1.3,0,2.6c1.3-1.3,1.3-2.6,2.6-3.9C274.2,283.7,274.2,283.7,274.2,285C275.5,283.7,274.2,283.7,274.2,285C275.5,283.7,274.2,283.7,274.2,285L274.2,285z M253.3,283.7c1.3,2.6,5.2,3.9,7.8,5.2c0-2.6,0-5.2,0-7.8C258.5,281.1,255.9,283.7,253.3,283.7C254.6,286.3,255.9,283.7,253.3,283.7C254.6,286.3,255.9,283.7,253.3,283.7z M246.8,294.1c-1.3-1.3-9.1-7.8-9.1-2.6C241.6,291.5,244.2,294.1,246.8,294.1L246.8,294.1C245.5,294.1,246.8,294.1,246.8,294.1C246.8,292.8,245.5,294.1,246.8,294.1z M252,299.4c0-2.6-3.9-3.9-5.2-2.6C248.1,296.8,250.7,298.1,252,299.4z"/><path d="M258.5,81.8c-3.9,3.9-22.1,11.7-22.1,2.6c0-7.8,6.5-13,14.3-13c1.3,0,3.9-1.3,3.9,0c1.3,1.3,1.3,1.3,2.6,2.6c1.3,1.3,3.9,5.2,0,5.2c1.3,0,1.3,3.9,0,3.9C255.9,81.8,257.2,80.5,258.5,81.8C250.7,87,255.9,79.2,258.5,81.8L258.5,81.8z M240.3,84.4c9.1,1.3,1.3-7.8,9.1-10.4C242.9,75.3,240.3,79.2,240.3,84.4c1.3,0,1.3-2.6,0-2.6V84.4C249.4,85.7,240.3,77.9,240.3,84.4z"/><path d="M396.6,699.3c3.9-1.3,9.1,7.8,10.4,9.1c3.9,7.8,9.1,14.3,14.3,19.5c3.9,5.2,7.8,9.1,13,13c3.9,3.9,7.8,9.1,10.4,14.3c7.8,13,16.9,24.8,24.8,37.8c9.1,13,19.5,24.8,31.3,37.8c10.4,11.7,20.8,23.4,30,36.5c2.6,5.2,7.8,9.1,9.1,14.3c2.6,5.2-2.6,9.1-7.8,5.2c-3.9-3.9-6.5-10.4-10.4-15.6c-3.9-5.2-9.1-9.1-11.7-15.6c-1.3-2.6-3.9-3.9-5.2-6.5c-1.3-1.3-1.3-2.6-2.6-3.9c-2.6-3.9-5.2-9.1-9.1-13c-5.2-6.5-10.4-13-15.6-19.5c-5.2-6.5-9.1-13-14.3-19.5c-3.9-3.9-7.8-7.8-10.4-11.7c-1.3-1.3-2.6-3.9-3.9-6.5c0-1.3,0-1.3,0-2.6c-1.3-1.3-3.9-2.6-5.2-3.9c-2.6-2.6-3.9-5.2-5.2-7.8c-1.3-2.6-3.9-5.2-6.5-6.5c-2.6-2.6-3.9-6.5-5.2-10.4c-2.6-3.9-5.2-6.5-7.8-10.4c-5.2-6.5-11.7-11.7-14.3-18.2C403.1,709.7,395.3,703.2,396.6,699.3c1.3,0,0,1.3,0,1.3C396.6,699.3,396.6,699.3,396.6,699.3C399.2,698,395.3,701.9,396.6,699.3L396.6,699.3z"/><path d="M214.2,98.7C214.2,100,215.5,97.4,214.2,98.7c1.3,1.3-5.2,2.6-7.8,2.6c-3.9,0-5.2-3.9-6.5-6.5c3.9,1.3,1.3-1.3,0-1.3c1.3-5.2,10.4-16.9,16.9-11.7c2.6,2.6,6.5,13,0,13C218.1,97.4,216.8,98.7,214.2,98.7L214.2,98.7C214.2,100,214.2,98.7,214.2,98.7L214.2,98.7z"/><path d="M367.9,102.6c9.1-1.3,16.9,5.2,16.9,13c0,1.3-1.3,15.6-3.9,13c1.3,9.1-10.4,19.5-15.6,26.1c-3.9,5.2-9.1,9.1-14.3,13c-3.9,2.6-9.1,1.3-3.9-3.9c10.4-9.1,20.8-16.9,27.4-28.7c2.6-6.5,3.9-13,2.6-20.8C374.5,111.8,367.9,107.9,367.9,102.6c-1.3,0,2.6,0,2.6,0C369.3,102.6,367.9,102.6,367.9,102.6C374.5,101.3,367.9,104,367.9,102.6L367.9,102.6z"/><path d="M155.6,231.6c0,1.3-1.3,6.5-2.6,6.5c1.3,5.2,3.9,11.7,7.8,15.6c6.5,7.8,14.3,15.6,24.8,19.5c9.1,3.9,18.2,3.9,27.4,1.3c2.6,0,6.5-2.6,9.1-1.3c2.6,2.6-3.9,5.2-6.5,5.2c-3.9,1.3-7.8,1.3-11.7,1.3c-5.2,1.3-11.7,3.9-18.2,3.9c-11.7,0-22.1-6.5-28.7-14.3c-3.9-3.9-6.5-9.1-9.1-13c-2.6-3.9-6.5-9.1-3.9-14.3c0-1.3,1.3-2.6,1.3-3.9c0-1.3,0-2.6,0-3.9C147.8,230.3,154.3,231.6,155.6,231.6c0,1.3-1.3,1.3-1.3,0C155.6,231.6,155.6,231.6,155.6,231.6C156.9,231.6,153,231.6,155.6,231.6L155.6,231.6z"/><path d="M457.8,309.8c7.8,15.6,23.4,30,43,30c11.7,0,22.1-3.9,33.9-3.9c6.5,0,10.4,2.6,15.6,5.2c5.2,2.6,10.4,5.2,15.6,9.1c6.5,5.2,10.4,13,15.6,18.2c1.3,1.3,2.6,2.6,3.9,2.6c2.6,1.3,2.6,2.6,3.9,3.9c3.9,3.9,7.8,6.5,10.4,10.4c7.8,7.8,15.6,15.6,22.1,24.8c5.2,9.1,15.6,15.6,18.2,26.1c-7.8,1.3-14.3-13-18.2-18.2c-7.8-11.7-18.2-20.8-28.7-30c-9.1-10.4-18.2-20.8-30-30c-2.6-2.6-5.2-5.2-9.1-6.5c-1.3-1.3-2.6-2.6-5.2-3.9c-1.3,0-2.6,0-3.9,0c-2.6-1.3-5.2-2.6-7.8-2.6c-3.9-1.3-7.8-1.3-11.7-1.3c-13,1.3-26.1,6.5-39.1,2.6c-11.7-3.9-20.8-13-27.4-22.1C460.4,324.1,450,311.1,457.8,309.8c1.3,0,2.6,6.5,0,3.9C455.2,312.4,455.2,309.8,457.8,309.8C467,326.7,451.3,309.8,457.8,309.8L457.8,309.8z"/><path d="M737.9,569c-5.2,5.2-11.7-6.5-13-9.1c-5.2-9.1-11.7-16.9-18.2-26.1c-9.1-11.7-18.2-23.5-26.1-36.5c-3.9-6.5-6.5-11.7-10.4-18.2c-3.9-6.5-9.1-11.7-14.3-18.2c-2.6-2.6-5.2-5.2-6.5-9.1c0-1.3,0-2.6,1.3-2.6c2.6-1.3,6.5,5.2,7.8,6.5c9.1,11.7,18.2,24.8,26.1,37.8C702.7,519.5,719.7,544.3,737.9,569c0,0-10.4-10.4-10.4-13c0,0,1.3,2.6,2.6,2.6C732.7,562.5,735.3,566.4,737.9,569C731.4,576.8,715.8,539.1,737.9,569L737.9,569z"/><path d="M809.6,846.5c5.2-14.3,16.9-24.8,23.4-39.1c6.5-14.3,9.1-30,11.7-45.6c1.3-6.5,3.9-13,1.3-19.5c-1.3-6.5-5.2-13-10.4-18.2c-9.1-11.7-13-24.8-22.1-37.8c-9.1-14.3-19.5-27.4-28.7-40.4c-5.2-6.5-9.1-13-14.3-19.5c-3.9-6.5-9.1-13-13-20.8c-1.3-1.3-3.9-6.5-2.6-9.1c2.6-2.6,10.4,10.4,11.7,11.7c3.9,6.5,9.1,11.7,13,16.9c3.9,6.5,9.1,14.3,13,20.8c13,18.2,24.8,35.2,37.8,53.4c11.7,16.9,27.4,33.9,26.1,56c0,19.5-9.1,37.8-18.2,54.7c-3.9,7.8-9.1,14.3-15.6,19.5c-2.6,2.6-5.2,5.2-6.5,7.8C816.1,843.9,813.5,847.8,809.6,846.5C810.9,841.3,814.8,847.8,809.6,846.5C812.2,837.4,814.8,849.1,809.6,846.5L809.6,846.5z"/><path d="M782.2,864.7c-2.6,7.8-11.7,13-18.2,19.5c-7.8,7.8-15.6,14.3-26.1,19.5c-19.5,11.7-40.4,22.1-62.5,31.3c-20.8,9.1-43,13-66.4,16.9c-9.1,1.3-19.5,2.6-26.1-3.9c-1.3-1.3-10.4-9.1-7.8-9.1c0-1.3-2.6-2.6-3.9-2.6c-2.6-1.3-3.9-5.2-6.5-7.8c-3.9-3.9-11.7-9.1-11.7-15.6c0-6.5,7.8,1.3,9.1,3.9c3.9,5.2,6.5,10.4,13,14.3c10.4,6.5,26.1,10.4,39.1,11.7c16.9,1.3,33.9-2.6,49.5-7.8c2.6-1.3,5.2-2.6,9.1-3.9c2.6-1.3,6.5-1.3,7.8-3.9c7.8-2.6,15.6-6.5,23.4-10.4c15.6-7.8,30-16.9,44.3-27.4c7.8-5.2,13-11.7,19.5-18.2c2.6-2.6,5.2-5.2,9.1-7.8c5.2-2.6,2.6,2.6,2.6,2.6C779.6,867.3,780.9,863.4,782.2,864.7C779.6,871.2,779.6,862.1,782.2,864.7L782.2,864.7z"/></g>
</svg>